PathFileType	4	(X/Y/Z)	C:/Users/beibeiliu/ov580/test_trc\sequence.27_training_dense_right.trc
DataRate	CameraRate	NumFrames	NumMarkers	Units	OrigDataRate	OrigDataStartFrame	OrigNumFrames
120	120	8	19	mm	120	249	331
Frame#	Time	ThumbCMC			ThumbMCP			ThumbIP			ThumbTip			IndexMCP			IndexPIP			IndexTip			MiddleMCP			MiddlePIP			MiddleTip			RingMCP			RingPIP			RingTip			PinkyMCP			PinkyPIP			PinkyTip			BackHand1			BackHand2			BackHand3	
		X0	Y0	Z0	X1	Y1	Z1	X2	Y2	Z2	X3	Y3	Z3	X4	Y4	Z4	X5	Y5	Z5	X6	Y6	Z6	X7	Y7	Z7	X8	Y8	Z8	X9	Y9	Z9	X10	Y10	Z10	X11	Y11	Z11	X12	Y12	Z12	X13	Y13	Z13	X14	Y14	Z14	X15	Y15	Z15	X16	Y16	Z16	X17	Y17	Z17	X18	Y18	Z18	
248	2.06667	215.723	12.7819	58.771	226.447	28.7805	35.396	229.31	36.7241	10.7939	230.304	47.3906	-8.51173	209.291	-2.62119	-4.52361	212.582	15.8108	-22.9644	217.223	42.8807	-22.6444	182.108	-6.41666	-11.677	187.485	-1.14076	-35.7836	190.833	14.1196	-57.5367	166.847	2.77788	-2.74022	167.882	7.69364	-25.2996	173.075	22.9651	-47.1984	148.217	13.3497	10.1932	146.594	15.9159	-9.45992	142.569	21.7811	-31.7197	164.036	-1.64143	44.8634	161.97	-0.31298	70.5338	188.974	-9.22389	54.1953	
249	2.075	214.548	11.5693	59.9915	226.63	27.1834	31.2472	229.041	35.0534	12.1817	229.479	45.69	-10.8642	208.704	-2.34459	-6.64794	215.95	16.3469	-23.239	217.153	42.4577	-22.9815	183.102	-7.73024	-12.0282	188.119	-3.06196	-34.5944	189.81	14.6303	-59.3263	167.065	1.04011	-5.96319	166.946	8.39987	-27.8416	172.636	21.1905	-47.214	151.646	11.069	8.28133	143.746	16.3888	-7.89121	145.516	20.7963	-31.8858	167.875	-3.68069	44.2348	166.302	-0.614999	72.0128	187.39	-10.8925	56.0952	
250	2.08333	217.949	11.0542	55.4099	229.812	28.3538	34.07	233.257	35.3648	10.2601	228.956	43.6495	-8.80151	213.072	-2.26007	-7.18774	213.957	14.8047	-23.3283	219.867	41.1435	-23.4296	185.782	-7.70982	-8.65272	186.599	-2.24632	-36.1457	190.81	13.6262	-58.1747	165.167	2.27633	-1.22984	165.808	7.49634	-26.6166	172.211	20.5846	-48.4391	150.353	11.1217	9.44855	145.047	13.4262	-11.3883	145.147	18.8032	-30.5681	168.439	-3.93601	46.0548	168.989	-1.42131	68.5795	193.108	-11.7233	52.7999	
251	2.09167	220.133	10.5676	57.3626	227.313	27.1266	35.0928	231.189	34.8825	13.2956	230.175	42.7538	-11.1363	213.221	-4.83716	-2.16848	220.065	15.8658	-23.3358	219.286	45.2884	-23.2227	189.195	-9.71201	-7.65856	189.485	-2.84419	-36.3488	194.168	10.5213	-57.7565	169	0.121993	-3.10967	166.092	6.45541	-27.2323	174.66	18.8732	-47.5168	149.52	10.3646	9.34683	147.764	12.753	-11.6806	146.269	15.1248	-31.978	168.894	-5.81104	42.9753	165.937	-0.385229	67.5743	192.818	-11.2249	53.2316	
252	2.1	219.708	11.9271	56.9491	229.866	26.9005	30.7566	231.931	35.5169	10.5027	228.441	43.794	-7.20434	208.524	-4.8941	-4.33962	217.021	15.5421	-24.3943	222.935	43.8768	-24.7556	187.918	-9.43976	-9.05071	187.081	-4.64403	-34.2658	194.419	12.4424	-59.8749	169.401	0.214789	-3.17024	167.168	4.8908	-27.6143	174.323	16.5823	-48.757	154.506	8.87607	7.72791	146.567	13.2283	-10.5423	144.405	17.2789	-30.3139	166.359	-4.53728	44.1114	165.429	-0.62536	68.9499	190.804	-11.3212	54.3646	
253	2.10833	219.964	10.6882	54.0956	227.758	27.9158	34.1528	232.89	36.4538	6.98783	231.347	45.5472	-11.662	213.299	-5.90202	-4.89666	219.403	13.234	-24.834	224.162	37.8246	-26.9131	189.949	-10.358	-9.00824	188.105	-4.93418	-38.1036	194.565	8.34051	-61.0282	167.28	-1.08472	-4.23673	168.796	2.69655	-26.5808	174.2	12.4959	-48.9339	151.721	11.5055	8.45069	148.579	12.4989	-9.52754	145.061	16.9366	-30.4616	167.715	-2.50488	41.782	169.393	-3.11244	68.8063	190.815	-11.8997	54.7829	
254	2.11667	217.602	12.1232	56.569	226.381	28.8291	31.988	229.55	36.2636	9.76478	224.926	44.8034	-10.9161	210.777	-4.22236	-8.82825	215.953	12.4837	-24.7209	225.021	42.4688	-27.8159	189.597	-10.2586	-8.71686	189.852	-5.98171	-37.4623	193.435	9.17719	-62.3597	168.059	-1.81352	-4.26242	168.714	0.564413	-29.1634	173.375	11.6699	-50.7277	149.218	11.3408	8.41364	149.652	12.3985	-14.5325	147.38	18.1773	-30.6446	165.567	-2.47387	44.2546	170.284	-3.35082	66.0923	193.392	-11.3595	55.3227	
255	2.125	219.866	12.3924	58.3279	228.914	28.5072	29.9896	233.482	38.2979	8.76409	229.351	47.5109	-12.827	212.208	-4.75714	-4.51397	219.397	13.8257	-25.9672	223.973	43.0775	-29.6337	188.704	-9.84314	-10.867	188.902	-5.56654	-36.5467	192.083	6.44666	-58.4909	168.655	-0.454866	-1.38198	167.062	1.85238	-31.3225	172.2	10.6724	-48.4466	149.243	11.6317	9.21086	146.486	14.0442	-11.7103	145.745	17.3699	-29.5171	168.052	-2.45954	40.8367	169.25	-1.98303	69.7182	195.539	-10.7325	53.1388	
